<svg width="88" height="26" viewBox="0 0 88 26" fill="none" xmlns="http://www.w3.org/2000/svg">
<g clip-path="url(#clip0_851_18803)">
<path d="M39.1642 20.7998C38.1801 20.7998 37.2729 20.6633 36.4398 20.3891C35.6081 20.1148 34.926 19.7053 34.3207 19.2263C33.7154 18.6791 33.2611 18.0635 32.8823 17.2421C32.579 16.4206 32.3525 15.532 32.3525 14.4363V13.9573C32.3525 12.9311 32.5035 12.1096 32.8823 11.2893C33.2611 10.5373 33.714 9.92056 34.3207 9.37331C34.926 8.82606 35.6822 8.48356 36.4398 8.21055C37.2715 7.93631 38.1046 7.7998 39.0132 7.7998C39.9973 7.7998 40.829 7.93631 41.5866 8.1423C42.3442 8.3483 42.9481 8.68955 43.4779 9.1003C44.0077 9.51105 44.3865 9.99005 44.6884 10.5373C44.9904 11.0846 45.1427 11.7001 45.2937 12.3156H41.8131C41.5866 11.7683 41.2833 11.2893 40.9045 10.9468C40.5257 10.6043 39.9204 10.4678 39.0887 10.4678C38.6344 10.4678 38.257 10.5361 37.8027 10.6726C37.4239 10.8091 37.0464 11.0151 36.7431 11.2881C36.4398 11.5611 36.2133 11.9718 36.0624 12.3826C35.9114 12.7933 35.8359 13.3406 35.8359 13.9561V14.4351C35.8359 15.1188 35.9114 15.6661 36.0624 16.1451C36.2133 16.6241 36.4412 17.0348 36.7431 17.3078C37.0464 17.5821 37.3484 17.8551 37.8027 17.9916C38.1815 18.1281 38.6344 18.1963 39.0887 18.1963C39.7695 18.1963 40.3747 18.0598 40.829 17.7173C41.2833 17.3748 41.6607 16.9653 41.8131 16.3486H45.2937C45.2182 17.0323 44.9904 17.6491 44.6884 18.1963C44.3865 18.7436 43.9322 19.2226 43.4024 19.6333C42.8726 20.0441 42.2674 20.3171 41.5111 20.5231C40.9059 20.7278 40.0728 20.7973 39.1656 20.7973L39.1642 20.7998Z" fill="white"/>
<path d="M51.6696 20.7999C50.9759 20.7999 50.4069 20.7302 49.9651 20.5909C49.4603 20.4516 49.0813 20.2413 48.7654 19.893C48.4495 19.5446 48.1976 19.1254 48.0717 18.4958C47.9458 17.9372 47.8828 17.2393 47.8828 16.3311V3.8999H50.7229V15.9815C50.7229 16.4007 50.7229 16.7491 50.7858 16.9593C50.8488 17.2393 50.9118 17.4483 51.0388 17.5876C51.1648 17.7269 51.2918 17.8675 51.5437 17.9372C51.7325 18.0069 51.9855 18.0765 52.3015 18.0765H52.7433C52.8693 18.0765 52.9963 18.0765 53.0593 18.0069V20.6606C52.9963 20.6606 52.8704 20.6606 52.7433 20.7302C52.6174 20.7302 52.4904 20.7302 52.4274 20.7999H51.6696Z" fill="white"/>
<path d="M55.9356 8.54563H59.17V20.7999H55.9356V8.54563ZM57.5886 7.26574C57.0137 7.26574 56.5105 7.1314 56.1507 6.79432C55.7909 6.45725 55.6475 6.05423 55.6475 5.58282C55.6475 5.11141 55.7909 4.70716 56.1507 4.37131C56.5105 4.03546 57.0137 3.8999 57.5886 3.8999C58.1636 3.8999 58.6668 4.03424 59.0266 4.37131C59.3864 4.70839 59.5298 5.11141 59.5298 5.58282C59.5298 6.05423 59.3864 6.45847 59.0266 6.79432C58.6668 7.13017 58.1636 7.26574 57.5886 7.26574Z" fill="white"/>
<path d="M67.6349 20.7998C66.6508 20.7998 65.7436 20.6633 64.9105 20.3891C64.0788 20.1148 63.3967 19.7053 62.7914 19.2263C62.1861 18.6791 61.7318 18.0635 61.353 17.2421C61.0497 16.4206 60.8232 15.532 60.8232 14.4363V13.9573C60.8232 12.9311 60.9742 12.1096 61.353 11.2893C61.7318 10.5373 62.1848 9.92056 62.7914 9.37331C63.3967 8.82606 64.1529 8.48356 64.9105 8.21055C65.7422 7.93631 66.5753 7.7998 67.4839 7.7998C68.468 7.7998 69.2997 7.93631 70.0573 8.1423C70.8149 8.3483 71.4188 8.68955 71.9486 9.1003C72.4784 9.51105 72.8572 9.99005 73.1591 10.5373C73.4611 11.0846 73.6134 11.7001 73.7644 12.3156H70.2838C70.0573 11.7683 69.754 11.2893 69.3752 10.9468C68.9964 10.6043 68.3911 10.4678 67.5594 10.4678C67.1051 10.4678 66.7277 10.5361 66.2734 10.6726C65.8946 10.8091 65.5171 11.0151 65.2138 11.2881C64.9105 11.5611 64.684 11.9718 64.5331 12.3826C64.3821 12.7933 64.3066 13.3406 64.3066 13.9561V14.4351C64.3066 15.1188 64.3821 15.6661 64.5331 16.1451C64.684 16.6241 64.9119 17.0348 65.2138 17.3078C65.5171 17.5821 65.8191 17.8551 66.2734 17.9916C66.6522 18.1281 67.1051 18.1963 67.5594 18.1963C68.2402 18.1963 68.8454 18.0598 69.2997 17.7173C69.754 17.3748 70.1314 16.9653 70.2838 16.3486H73.7644C73.6889 17.0323 73.4611 17.6491 73.1591 18.1963C72.8572 18.7436 72.4029 19.2226 71.8731 19.6333C71.3433 20.0441 70.7381 20.3171 69.9818 20.5231C69.3766 20.7278 68.5435 20.7973 67.6363 20.7973L67.6349 20.7998Z" fill="white"/>
<path d="M76.3525 20.7999V3.8999H79.4673V13.2657L83.9367 7.98441H87.5255L82.921 13.4062L87.9996 20.7999H84.3432L80.822 15.5889L79.4673 17.1382V20.7999H76.3525Z" fill="white"/>
<path fill-rule="evenodd" clip-rule="evenodd" d="M4.41365 4.43661C1.45627 7.36511 0 10.1608 0 12.9557V13C0 15.7949 1.45627 18.6349 4.41365 21.5634C7.32699 24.4919 10.1515 25.9557 12.9327 26H12.9767C15.7572 26 18.5825 24.5362 21.4958 21.5634C27.3225 15.7064 27.3665 10.3379 21.4958 4.39235C18.5384 1.46385 15.714 0 12.9327 0C10.1515 0 7.32699 1.46385 4.41365 4.43661ZM8.25407 17.6587C5.0317 14.4196 5.07573 11.4911 8.25407 8.29702C11.4324 5.10214 14.3458 5.05788 17.5673 8.29702C20.7897 11.5362 20.7457 14.4647 17.5673 17.6587C15.9782 19.2562 14.433 20.0545 12.9327 20.0545C11.3876 20.0987 9.88727 19.3004 8.25407 17.6587Z" fill="url(#paint0_linear_851_18803)"/>
</g>
<defs>
<linearGradient id="paint0_linear_851_18803" x1="4.31277" y1="22.1066" x2="20.8865" y2="4.81465" gradientUnits="userSpaceOnUse">
<stop stop-color="#0078FF"/>
<stop offset="1" stop-color="#00DEFF"/>
</linearGradient>
<clipPath id="clip0_851_18803">
<rect width="88" height="26" fill="white"/>
</clipPath>
</defs>
</svg>
