<svg width="82" height="24" viewBox="0 0 82 24" fill="none" xmlns="http://www.w3.org/2000/svg">
<g clip-path="url(#clip0_851_18796)">
<path d="M13.436 2.37401C13.1485 1.90642 12.7745 1.49935 12.3328 1.17478C11.8878 0.867824 11.3991 0.630179 10.8842 0.467347C10.3244 0.283612 9.7471 0.160389 9.16107 0.100977C8.47664 0.0327641 7.78894 0.000857988 7.10014 0.00415862H1.13928C0.568563 -0.0497517 0.0623498 0.371629 0.0087765 0.944839C0.0087765 0.954741 0.00658984 0.965743 0.00658984 0.975645V10.7708C0.83315 12.5554 2.20528 14.0263 3.92291 14.9692V13.0142C3.86824 12.3804 4.334 11.8215 4.96376 11.7665H4.96595H6.75464C9.19496 11.7665 11.0569 11.2527 12.3405 10.2251C13.6241 9.19752 14.2757 7.67373 14.2954 5.65484C14.2976 5.07283 14.2298 4.49302 14.0931 3.92751C13.9564 3.37851 13.7356 2.8537 13.4371 2.37401H13.436ZM9.9428 7.38217C9.73507 7.74194 9.42566 8.0324 9.05502 8.21613C8.65267 8.40977 8.21862 8.52529 7.77363 8.5583C7.28491 8.61991 6.794 8.64962 6.30091 8.64852H4.58438C4.17328 8.64852 3.91635 8.31295 3.91635 7.82116V3.80209C3.89448 3.47202 4.14267 3.18597 4.47067 3.16286C4.50894 3.16066 4.54611 3.16176 4.58328 3.16616H6.29982C6.85632 3.16616 7.38112 3.18267 7.87312 3.21457C8.31264 3.23548 8.74342 3.3422 9.14248 3.52703C9.50984 3.69207 9.81707 3.96822 10.0182 4.31919C10.2467 4.78898 10.3506 5.30938 10.3222 5.83088C10.3342 6.37218 10.2019 6.90578 9.94062 7.37887V7.38437L9.9428 7.38217ZM3.92838 15.5578C2.45894 15.0242 1.1207 14.1771 0.00658984 13.0747V17.7836C-0.0447968 18.151 0.20995 18.491 0.575123 18.5416C0.58387 18.5427 0.59371 18.5438 0.602457 18.5449H3.29643C4.01147 18.5449 3.92838 17.777 3.92838 17.777V15.5578ZM40.9574 5.13334H38.633C38.1749 5.10364 37.7616 5.40949 37.6555 5.85948L34.955 13.3453C34.955 13.3453 32.5704 6.52511 32.3922 5.99701C32.2883 5.49531 31.8521 5.13334 31.3426 5.12674H29.203C28.4398 5.12674 28.4398 5.72636 28.5415 5.9607C28.6432 6.19505 31.57 14.2684 32.7137 17.3578C32.8941 17.7385 33.0198 18.1422 33.0887 18.557C33.0143 18.9674 32.8602 19.3591 32.636 19.7089C32.5486 19.8575 32.4491 19.9983 32.3376 20.1292C34.5428 19.4691 37.1067 17.064 38.3935 14.4664C39.6935 10.8676 41.4035 6.06852 41.4811 5.82317C41.5642 5.4458 41.5642 5.13334 40.9563 5.13334H40.9574ZM30.597 20.8609C30.398 20.8554 30.199 20.84 30.0011 20.8124C29.7562 20.7761 29.2915 20.8124 29.2915 21.2327V23.0327C29.2915 23.7225 29.625 23.7709 29.7977 23.8182C30.3499 23.9403 30.914 24.0009 31.4782 23.9987C32.1462 24.0163 32.8088 23.8787 33.4156 23.5971C33.9699 23.3154 34.463 22.9238 34.8642 22.4452C35.3191 21.9215 35.7039 21.3417 36.009 20.7178C36.3392 20.0544 36.6529 19.3206 36.9503 18.5163L37.2958 17.5624C36.6048 18.2523 33.5522 21.1491 30.5959 20.862L30.597 20.8609ZM27.0797 7.28646C26.9529 6.9839 26.7801 6.70224 26.5669 6.4525C26.3516 6.22145 26.1066 6.02011 25.8399 5.85288C25.5512 5.65484 25.244 5.48651 24.9215 5.34898C24.5935 5.22136 24.2567 5.11904 23.9145 5.04312C23.522 4.95621 23.1229 4.8979 22.7228 4.86929C22.2931 4.82528 21.8131 4.80328 21.2807 4.80328C17.7284 4.80328 15.7058 5.93099 15.2127 8.18643C15.1329 8.50769 15.3264 8.83335 15.6456 8.91477C15.6762 8.92247 15.7069 8.92797 15.7375 8.93017H17.9252C18.5211 8.93017 18.5211 8.74423 18.7474 8.22824C18.8469 7.94768 19.0251 7.70123 19.2602 7.5208C19.8189 7.15773 20.4804 6.9872 21.144 7.03451C21.7628 6.97069 22.3849 7.12582 22.9021 7.47239C23.2968 7.84316 23.5308 8.35696 23.5515 8.90046C23.5515 9.64421 23.3252 10.136 22.4068 10.136C20.2311 10.0579 17.8946 10.3043 16.5772 11.0657C15.2575 11.8765 14.4703 13.3365 14.5151 14.8922C14.4998 15.4874 14.6201 16.0782 14.8672 16.6195C15.099 17.0904 15.4357 17.5008 15.8512 17.8188C16.2863 18.1763 16.7893 18.4415 17.3294 18.5988C17.9394 18.765 18.5692 18.8453 19.2012 18.8387C20.0518 18.8519 20.898 18.7309 21.7104 18.4789C22.4287 18.1829 23.1076 17.7979 23.7308 17.3336V17.7539C23.7308 18.1675 23.8555 18.5394 24.3267 18.5394H26.86C27.3727 18.5394 27.4919 18.173 27.4919 17.7176V9.86535C27.4952 9.37576 27.4613 8.88616 27.3902 8.40207C27.3345 8.0181 27.2295 7.64402 27.0797 7.28646ZM23.616 15C23.616 15 22.96 16.3797 20.6356 16.3797C20.078 16.405 19.527 16.2521 19.0623 15.9418C18.6468 15.6173 18.4216 15.1024 18.4664 14.5743C18.4139 13.8602 18.8054 13.1869 19.4504 12.8832C20.3907 12.5202 21.3944 12.3507 22.4013 12.3848C22.9906 12.2957 23.5406 12.7039 23.6292 13.2969C23.6379 13.353 23.6412 13.4091 23.6412 13.4652L23.6171 15.0011L23.616 15Z" fill="white"/>
<path d="M81.5511 9.95034C82.1503 10.9196 82.1503 12.1475 81.5511 13.1179C80.9553 14.0299 77.7059 17.5209 76.6333 18.642C75.7029 19.6135 74.4455 20.5971 73.2002 20.5971H47.3954C43.9022 20.5971 43.6934 19.3979 43.6934 16.7221V5.81135C43.6934 3.06963 44.4981 2.27197 46.8881 2.27197H73.2593C74.4937 2.27197 75.5957 2.90789 76.8356 4.19184C77.9202 5.28985 81.1214 9.30232 81.5511 9.95034Z" fill="#33CCCC"/>
<path d="M49.5535 6.48888V6.42287C49.5535 6.0686 49.5535 5.72754 48.9576 5.72754H46.7939C46.2877 5.72754 46.2637 6.00369 46.2637 6.43497V9.31423C47.1176 8.1183 48.2459 7.14901 49.5535 6.48888Z" fill="white"/>
<path d="M64.0438 16.9016V16.7453V9.79971C64.0438 6.89296 62.7679 5.43848 60.2172 5.43848C59.5076 5.44728 58.8133 5.65522 58.2142 6.03809C57.5538 6.45287 56.9645 6.97107 56.4681 7.57399C56.2429 6.92266 55.8067 6.36705 55.2283 5.99628C54.5712 5.63211 53.8266 5.45498 53.0766 5.48689C51.9734 5.49129 50.902 5.86206 50.0306 6.54309C49.8403 6.73453 46.2575 9.54226 46.2575 12.4699V16.9148C46.2575 17.0523 46.1864 17.5925 46.7877 17.5925H49.0345C49.7321 17.5925 49.6665 17.1304 49.6665 16.939V9.7414C50.0415 9.232 50.8112 8.01407 52.0806 8.01407C52.4939 7.97666 52.8951 8.167 53.1302 8.51247C53.3849 9.02406 53.4964 9.59727 53.4516 10.1683V15.7772V16.9291C53.4516 17.0666 53.3805 17.6068 53.9819 17.6068H56.2057C56.9033 17.6068 56.8377 17.1447 56.8377 16.9533V16.7971V9.7194C57.2433 9.21 58.0294 7.99207 59.2517 7.99207C59.6694 7.95796 60.075 8.1472 60.3188 8.49046C60.578 9.00096 60.6917 9.57417 60.6468 10.1463V15.7552V16.9071C60.6468 17.0446 60.5758 17.5848 61.1771 17.5848H63.4239C64.1269 17.5485 64.0438 17.093 64.0438 16.9071V16.9016Z" fill="white"/>
<path d="M76.4361 14.0771C75.6522 16.1973 73.5913 17.5604 71.3455 17.4427C67.9125 17.4427 65.623 15.0915 65.623 11.5643C65.623 8.03699 68.0076 5.56592 71.2264 5.56592C74.4452 5.56592 76.5914 7.80925 76.728 11.4267C76.728 11.8888 76.6143 12.297 76.037 12.297H68.7533C68.8014 14.2345 69.7252 15.2962 71.3696 15.2962C72.2618 15.3182 73.085 14.8176 73.4797 14.0122C73.6339 13.7856 73.8919 13.6525 74.1653 13.658H76.0425C76.2492 13.6481 76.4252 13.8087 76.435 14.0177C76.4361 14.0463 76.435 14.0738 76.4295 14.1025L76.435 14.0782L76.4361 14.0771ZM71.2384 7.80265C69.8728 7.80265 68.949 8.75653 68.7467 10.3276H73.635C73.5103 8.95347 72.7702 7.80265 71.2384 7.80265Z" fill="white"/>
</g>
<defs>
<clipPath id="clip0_851_18796">
<rect width="82" height="24" fill="white"/>
</clipPath>
</defs>
</svg>
